<svg width="16" height="16" viewBox="0 0 16 16" fill="none" xmlns="http://www.w3.org/2000/svg">
<g clip-path="url(#clip0_564_21941)">
<path d="M14.6667 7.38625V7.99958C14.6659 9.4372 14.2004 10.836 13.3396 11.9875C12.4788 13.1389 11.2689 13.9812 9.89028 14.3888C8.51166 14.7965 7.03821 14.7475 5.68969 14.2493C4.34116 13.7511 3.18981 12.8303 2.40735 11.6243C1.62488 10.4183 1.25323 8.99163 1.34783 7.55713C1.44242 6.12263 1.99818 4.75713 2.93223 3.6643C3.86628 2.57146 5.12856 1.80984 6.53083 1.49301C7.9331 1.17619 9.40022 1.32114 10.7134 1.90625" stroke="#3BAA35" stroke-width="1.5" stroke-linecap="round" stroke-linejoin="round"/>
<path d="M14.6667 2.66699L8 9.34032L6 7.34032" stroke="#3BAA35" stroke-width="1.5" stroke-linecap="round" stroke-linejoin="round"/>
</g>
<defs>
<clipPath id="clip0_564_21941">
<rect width="16" height="16" fill="white"/>
</clipPath>
</defs>
</svg>
