<svg width="200" height="32" viewBox="0 0 200 32" fill="none" xmlns="http://www.w3.org/2000/svg">
<rect width="200" height="32" rx="10" fill="black"/>
<path d="M12.624 8.084C13.3867 8.084 14.1493 8.15733 14.912 8.304C15.6893 8.45067 16.3567 8.66333 16.914 8.942L16.386 11.604C15.946 11.428 15.44 11.2813 14.868 11.164C14.3107 11.032 13.7533 10.966 13.196 10.966C11.7 10.966 10.5193 11.3547 9.654 12.132C8.78867 12.9093 8.356 14.09 8.356 15.674C8.356 17.258 8.78867 18.4387 9.654 19.216C10.5193 19.9933 11.7 20.382 13.196 20.382C13.7533 20.382 14.3107 20.3233 14.868 20.206C15.44 20.074 15.946 19.92 16.386 19.744L16.914 22.406C16.3567 22.6847 15.6893 22.8973 14.912 23.044C14.1493 23.1907 13.3867 23.264 12.624 23.264C11.3333 23.264 10.1967 23.0733 9.214 22.692C8.23133 22.3107 7.41 21.7827 6.75 21.108C6.09 20.4333 5.59133 19.634 5.254 18.71C4.91667 17.786 4.748 16.774 4.748 15.674C4.748 14.574 4.91667 13.562 5.254 12.638C5.59133 11.714 6.09 10.9147 6.75 10.24C7.41 9.56533 8.23133 9.03733 9.214 8.656C10.1967 8.27467 11.3333 8.084 12.624 8.084ZM18.321 12.22H28.001V14.684H24.921V23H21.401V14.684H18.321V12.22ZM29.8552 12.22H33.2212V13.496C33.9252 12.4987 35.0032 12 36.4552 12C37.0565 12 37.6212 12.132 38.1492 12.396C38.6772 12.6453 39.1318 13.012 39.5132 13.496C39.9092 13.9653 40.2172 14.5373 40.4372 15.212C40.6572 15.8867 40.7672 16.642 40.7672 17.478C40.7672 18.4313 40.6132 19.2673 40.3052 19.986C40.0118 20.69 39.6085 21.284 39.0952 21.768C38.5965 22.252 38.0098 22.6187 37.3352 22.868C36.6605 23.1027 35.9418 23.22 35.1792 23.22C34.7978 23.22 34.4605 23.1907 34.1672 23.132C33.8738 23.088 33.6098 23.0293 33.3752 22.956V27.532H29.8552V12.22ZM35.1792 14.706C34.7832 14.706 34.4385 14.772 34.1452 14.904C33.8518 15.0213 33.5952 15.2047 33.3752 15.454V20.448C33.5365 20.5067 33.7198 20.5507 33.9252 20.58C34.1305 20.6093 34.3652 20.624 34.6292 20.624C35.5532 20.624 36.2205 20.3453 36.6312 19.788C37.0418 19.216 37.2472 18.4533 37.2472 17.5C37.2472 16.708 37.0785 16.048 36.7412 15.52C36.4185 14.9773 35.8978 14.706 35.1792 14.706ZM53.4388 17.61C53.4388 18.402 53.3141 19.1427 53.0648 19.832C52.8155 20.5067 52.4488 21.1007 51.9648 21.614C51.4808 22.1127 50.8795 22.5087 50.1608 22.802C49.4421 23.0807 48.6208 23.22 47.6968 23.22C46.7728 23.22 45.9515 23.0807 45.2328 22.802C44.5141 22.5087 43.9128 22.1127 43.4288 21.614C42.9448 21.1007 42.5781 20.5067 42.3288 19.832C42.0795 19.1427 41.9548 18.402 41.9548 17.61C41.9548 16.818 42.0795 16.0847 42.3288 15.41C42.5781 14.7207 42.9448 14.1267 43.4288 13.628C43.9128 13.1147 44.5141 12.7187 45.2328 12.44C45.9515 12.1467 46.7728 12 47.6968 12C48.6208 12 49.4421 12.1467 50.1608 12.44C50.8795 12.7187 51.4808 13.1147 51.9648 13.628C52.4488 14.1267 52.8155 14.7207 53.0648 15.41C53.3141 16.0847 53.4388 16.818 53.4388 17.61ZM49.9188 17.61C49.9188 17.2287 49.8821 16.862 49.8088 16.51C49.7355 16.1433 49.6108 15.8207 49.4348 15.542C49.2735 15.2487 49.0461 15.0213 48.7528 14.86C48.4741 14.684 48.1221 14.596 47.6968 14.596C47.2715 14.596 46.9121 14.684 46.6188 14.86C46.3401 15.0213 46.1128 15.2487 45.9368 15.542C45.7755 15.8207 45.6581 16.1433 45.5848 16.51C45.5115 16.862 45.4748 17.2287 45.4748 17.61C45.4748 17.9913 45.5115 18.3653 45.5848 18.732C45.6581 19.084 45.7755 19.4067 45.9368 19.7C46.1128 19.9787 46.3401 20.206 46.6188 20.382C46.9121 20.5433 47.2715 20.624 47.6968 20.624C48.1221 20.624 48.4741 20.5433 48.7528 20.382C49.0461 20.206 49.2735 19.9787 49.4348 19.7C49.6108 19.4067 49.7355 19.084 49.8088 18.732C49.8821 18.3653 49.9188 17.9913 49.9188 17.61ZM55.3356 23V12.22H58.8336V18.116L62.4856 12.22H65.8076V23H62.2876V17.016L58.6796 23H55.3356ZM64.9276 7.072C64.737 8.23067 64.2383 9.118 63.4316 9.734C62.625 10.35 61.635 10.658 60.4616 10.658C59.2883 10.658 58.2983 10.35 57.4916 9.734C56.685 9.118 56.1863 8.23067 55.9956 7.072L58.6136 6.544C58.7016 6.96933 58.8776 7.35067 59.1416 7.688C59.4203 8.02533 59.8603 8.194 60.4616 8.194C60.7696 8.194 61.0336 8.15 61.2536 8.062C61.4736 7.974 61.6496 7.85667 61.7816 7.71C61.9136 7.56333 62.0163 7.38733 62.0896 7.182C62.1776 6.962 62.251 6.74933 62.3096 6.544L64.9276 7.072ZM78.7627 8.348V11.208H74.8247V23H71.2167V11.208H67.2787V8.348H78.7627ZM89.9193 17.61C89.9193 18.402 89.7946 19.1427 89.5453 19.832C89.2959 20.5067 88.9293 21.1007 88.4453 21.614C87.9613 22.1127 87.3599 22.5087 86.6413 22.802C85.9226 23.0807 85.1013 23.22 84.1773 23.22C83.2533 23.22 82.4319 23.0807 81.7133 22.802C80.9946 22.5087 80.3933 22.1127 79.9093 21.614C79.4253 21.1007 79.0586 20.5067 78.8093 19.832C78.5599 19.1427 78.4353 18.402 78.4353 17.61C78.4353 16.818 78.5599 16.0847 78.8093 15.41C79.0586 14.7207 79.4253 14.1267 79.9093 13.628C80.3933 13.1147 80.9946 12.7187 81.7133 12.44C82.4319 12.1467 83.2533 12 84.1773 12C85.1013 12 85.9226 12.1467 86.6413 12.44C87.3599 12.7187 87.9613 13.1147 88.4453 13.628C88.9293 14.1267 89.2959 14.7207 89.5453 15.41C89.7946 16.0847 89.9193 16.818 89.9193 17.61ZM86.3993 17.61C86.3993 17.2287 86.3626 16.862 86.2893 16.51C86.2159 16.1433 86.0913 15.8207 85.9153 15.542C85.7539 15.2487 85.5266 15.0213 85.2333 14.86C84.9546 14.684 84.6026 14.596 84.1773 14.596C83.7519 14.596 83.3926 14.684 83.0993 14.86C82.8206 15.0213 82.5933 15.2487 82.4173 15.542C82.2559 15.8207 82.1386 16.1433 82.0653 16.51C81.9919 16.862 81.9553 17.2287 81.9553 17.61C81.9553 17.9913 81.9919 18.3653 82.0653 18.732C82.1386 19.084 82.2559 19.4067 82.4173 19.7C82.5933 19.9787 82.8206 20.206 83.0993 20.382C83.3926 20.5433 83.7519 20.624 84.1773 20.624C84.6026 20.624 84.9546 20.5433 85.2333 20.382C85.5266 20.206 85.7539 19.9787 85.9153 19.7C86.0913 19.4067 86.2159 19.084 86.2893 18.732C86.3626 18.3653 86.3993 17.9913 86.3993 17.61ZM91.8161 23V12.22H96.5681C98.1961 12.22 99.3914 12.4253 100.154 12.836C100.931 13.232 101.32 13.9213 101.32 14.904C101.32 15.6227 101.107 16.1947 100.682 16.62C100.271 17.0453 99.7654 17.3387 99.1641 17.5C99.4428 17.544 99.7214 17.6173 100 17.72C100.293 17.8227 100.557 17.9693 100.792 18.16C101.027 18.3507 101.217 18.5927 101.364 18.886C101.525 19.1793 101.606 19.5387 101.606 19.964C101.606 20.536 101.503 21.02 101.298 21.416C101.093 21.7973 100.792 22.1053 100.396 22.34C100 22.5747 99.5161 22.7433 98.9441 22.846C98.3868 22.9487 97.7488 23 97.0301 23H91.8161ZM96.6561 20.69C97.2574 20.69 97.6534 20.6093 97.8441 20.448C98.0494 20.272 98.1521 20.008 98.1521 19.656C98.1521 19.2747 98.0348 19.0033 97.8001 18.842C97.5654 18.666 97.1548 18.578 96.5681 18.578H95.3361V20.69H96.6561ZM96.5681 16.554C97.1108 16.554 97.4774 16.4513 97.6681 16.246C97.8734 16.026 97.9761 15.7693 97.9761 15.476C97.9761 15.1533 97.8661 14.9187 97.6461 14.772C97.4408 14.6107 97.0741 14.53 96.5461 14.53H95.3361V16.554H96.5681ZM109.679 21.944C109.342 22.2813 108.88 22.582 108.293 22.846C107.721 23.0953 107.09 23.22 106.401 23.22C105.917 23.22 105.484 23.1393 105.103 22.978C104.722 22.8167 104.399 22.5967 104.135 22.318C103.886 22.0393 103.688 21.7167 103.541 21.35C103.409 20.9687 103.343 20.5653 103.343 20.14C103.343 19.1427 103.651 18.3947 104.267 17.896C104.898 17.3827 105.785 17.082 106.929 16.994C107.354 16.9647 107.802 16.9427 108.271 16.928C108.755 16.9133 109.18 16.8987 109.547 16.884V16.532C109.547 15.3587 108.894 14.772 107.589 14.772C107.076 14.772 106.577 14.8307 106.093 14.948C105.624 15.0653 105.191 15.2267 104.795 15.432L104.157 12.99C104.67 12.6967 105.272 12.462 105.961 12.286C106.665 12.0953 107.428 12 108.249 12C109.76 12 110.94 12.396 111.791 13.188C112.642 13.9653 113.067 15.1387 113.067 16.708V23H109.679V21.944ZM107.765 20.91C108.102 20.91 108.418 20.866 108.711 20.778C109.019 20.69 109.298 20.5727 109.547 20.426V18.82C109.195 18.8493 108.88 18.886 108.601 18.93C108.322 18.9593 108.051 18.9887 107.787 19.018C107.068 19.106 106.709 19.4433 106.709 20.03C106.709 20.294 106.797 20.5067 106.973 20.668C107.164 20.8293 107.428 20.91 107.765 20.91ZM115.556 12.22H118.922V13.496C119.626 12.4987 120.704 12 122.156 12C122.758 12 123.322 12.132 123.85 12.396C124.378 12.6453 124.833 13.012 125.214 13.496C125.61 13.9653 125.918 14.5373 126.138 15.212C126.358 15.8867 126.468 16.642 126.468 17.478C126.468 18.4313 126.314 19.2673 126.006 19.986C125.713 20.69 125.31 21.284 124.796 21.768C124.298 22.252 123.711 22.6187 123.036 22.868C122.362 23.1027 121.643 23.22 120.88 23.22C120.499 23.22 120.162 23.1907 119.868 23.132C119.575 23.088 119.311 23.0293 119.076 22.956V27.532H115.556V12.22ZM120.88 14.706C120.484 14.706 120.14 14.772 119.846 14.904C119.553 15.0213 119.296 15.2047 119.076 15.454V20.448C119.238 20.5067 119.421 20.5507 119.626 20.58C119.832 20.6093 120.066 20.624 120.33 20.624C121.254 20.624 121.922 20.3453 122.332 19.788C122.743 19.216 122.948 18.4533 122.948 17.5C122.948 16.708 122.78 16.048 122.442 15.52C122.12 14.9773 121.599 14.706 120.88 14.706ZM132.936 20.536C133.185 20.536 133.435 20.5213 133.684 20.492C133.948 20.448 134.183 20.3673 134.388 20.25C134.593 20.1327 134.755 19.9787 134.872 19.788C135.004 19.5827 135.07 19.3113 135.07 18.974C135.07 18.5927 134.931 18.2627 134.652 17.984C134.373 17.6907 133.86 17.544 133.112 17.544C132.907 17.544 132.687 17.5587 132.452 17.588C132.217 17.6027 132.041 17.6247 131.924 17.654V20.536H132.936ZM131.924 15.432C132.012 15.4173 132.137 15.4027 132.298 15.388C132.474 15.3587 132.65 15.3367 132.826 15.322C133.002 15.3073 133.171 15.3 133.332 15.3C133.508 15.2853 133.655 15.278 133.772 15.278C134.725 15.278 135.495 15.4027 136.082 15.652C136.683 15.8867 137.145 16.1873 137.468 16.554C137.805 16.9207 138.033 17.324 138.15 17.764C138.267 18.204 138.326 18.6147 138.326 18.996C138.326 20.2427 137.908 21.2253 137.072 21.944C136.251 22.648 135.041 23 133.442 23H128.404V12.22H131.924V15.432ZM139.712 23V12.22H143.232V23H139.712ZM156.632 18.864C156.632 19.524 156.486 20.1107 156.192 20.624C155.899 21.1373 155.474 21.57 154.916 21.922C154.374 22.274 153.714 22.5453 152.936 22.736C152.174 22.912 151.323 23 150.384 23H145.83V8.348H151.088C151.88 8.348 152.584 8.436 153.2 8.612C153.831 8.788 154.359 9.03 154.784 9.338C155.21 9.646 155.532 10.0053 155.752 10.416C155.987 10.8267 156.104 11.274 156.104 11.758C156.104 12.6673 155.848 13.4153 155.334 14.002C154.836 14.5887 154.102 15.0287 153.134 15.322C153.633 15.41 154.095 15.5493 154.52 15.74C154.946 15.9307 155.312 16.1727 155.62 16.466C155.943 16.7593 156.192 17.104 156.368 17.5C156.544 17.896 156.632 18.3507 156.632 18.864ZM153.068 18.578C153.068 18.0207 152.841 17.6027 152.386 17.324C151.946 17.0307 151.33 16.884 150.538 16.884H149.35V20.294H150.626C151.506 20.294 152.13 20.1253 152.496 19.788C152.878 19.4507 153.068 19.0473 153.068 18.578ZM150.406 14.178C151.037 14.178 151.55 14.0387 151.946 13.76C152.342 13.4667 152.54 13.056 152.54 12.528C152.54 12.0587 152.364 11.6993 152.012 11.45C151.675 11.186 151.198 11.054 150.582 11.054H149.35V14.178H150.406ZM163.757 12C164.315 12 164.857 12.0587 165.385 12.176C165.928 12.2933 166.397 12.4547 166.793 12.66L166.441 15.168C166.163 15.0507 165.825 14.948 165.429 14.86C165.048 14.772 164.659 14.728 164.263 14.728C163.325 14.728 162.621 14.9847 162.151 15.498C161.682 16.0113 161.447 16.7153 161.447 17.61C161.447 18.5047 161.682 19.2087 162.151 19.722C162.621 20.2353 163.325 20.492 164.263 20.492C164.659 20.492 165.048 20.448 165.429 20.36C165.825 20.272 166.163 20.1693 166.441 20.052L166.793 22.56C166.397 22.7653 165.928 22.9267 165.385 23.044C164.857 23.1613 164.315 23.22 163.757 23.22C162.848 23.22 162.027 23.088 161.293 22.824C160.575 22.5453 159.966 22.164 159.467 21.68C158.969 21.1813 158.587 20.5873 158.323 19.898C158.059 19.2087 157.927 18.446 157.927 17.61C157.927 16.774 158.059 16.0113 158.323 15.322C158.587 14.6327 158.969 14.046 159.467 13.562C159.966 13.0633 160.575 12.682 161.293 12.418C162.027 12.1393 162.848 12 163.757 12ZM173.44 12C174.848 12 175.962 12.418 176.784 13.254C177.605 14.0753 178.016 15.2193 178.016 16.686C178.016 17.2433 177.95 17.8373 177.818 18.468H171.57C171.599 19.128 171.819 19.6633 172.23 20.074C172.655 20.47 173.3 20.668 174.166 20.668C174.694 20.668 175.244 20.624 175.816 20.536C176.402 20.4333 176.908 20.2867 177.334 20.096L177.774 22.362C177.216 22.6407 176.586 22.8533 175.882 23C175.192 23.1467 174.474 23.22 173.726 23.22C172.787 23.22 171.958 23.088 171.24 22.824C170.521 22.5453 169.92 22.164 169.436 21.68C168.952 21.196 168.585 20.6167 168.336 19.942C168.086 19.2673 167.962 18.5193 167.962 17.698C167.962 16.818 168.086 16.026 168.336 15.322C168.6 14.618 168.966 14.024 169.436 13.54C169.92 13.0413 170.499 12.66 171.174 12.396C171.848 12.132 172.604 12 173.44 12ZM173.33 14.244C172.772 14.244 172.34 14.4273 172.032 14.794C171.738 15.146 171.592 15.6373 171.592 16.268H174.716C174.745 16.1507 174.76 16.026 174.76 15.894C174.76 15.4247 174.635 15.036 174.386 14.728C174.136 14.4053 173.784 14.244 173.33 14.244ZM189.953 12.22H193.319L193.935 23H190.569L190.261 16.686L187.885 21.636H185.773L183.111 16.686L182.869 23H179.855L180.383 12.22H184.123L187.115 18.028L189.953 12.22Z" fill="#F1D900"/>
</svg>
