<svg width="180" height="46" viewBox="0 0 180 46" fill="none" xmlns="http://www.w3.org/2000/svg">
<rect x="1.78809" y="7.15332" width="35.7645" height="35.7645" rx="5.96074" fill="#FCEC41"/>
<rect y="8.94141" width="35.7645" height="35.7645" rx="5.96074" fill="#FBE303"/>
<path fill-rule="evenodd" clip-rule="evenodd" d="M14.9094 14.9902C14.8093 15.0388 14.6938 15.1539 14.6459 15.2529C14.5657 15.4185 14.5741 15.568 14.7863 17.7467C14.9104 19.0214 15.011 20.1187 15.0098 20.185C14.9982 20.8538 13.9908 20.975 13.789 20.3319C13.7609 20.2424 13.6866 19.6149 13.6238 18.9374C13.561 18.26 13.4996 17.6745 13.4873 17.6364C13.4587 17.5482 12.8509 17.8702 12.1074 18.3671C10.6321 19.3531 9.45079 20.7105 8.66859 22.3183C8.37461 22.9227 8.03189 23.9074 7.89783 24.5329L7.80518 24.9654H7.43462C6.90052 24.9654 6.67046 25.049 6.35802 25.3567C5.98193 25.7271 5.87799 26.119 6.02541 26.6104C6.11178 26.8983 6.55264 27.3326 6.84496 27.4176C7.01383 27.4668 9.54599 27.4814 17.8915 27.4814C30.1064 27.4814 29.0279 27.5205 29.4458 27.0627C29.923 26.5399 29.923 25.9068 29.4458 25.3841C29.1653 25.0768 28.8706 24.9654 28.3385 24.9654H27.9579L27.8652 24.5329C27.4302 22.5029 26.2458 20.5048 24.6668 19.1374C23.8546 18.434 22.3284 17.4752 22.276 17.6355C22.2634 17.674 22.2003 18.2718 22.1358 18.9637C22.0713 19.6556 21.9872 20.2978 21.9489 20.3909C21.868 20.5875 21.5922 20.7716 21.378 20.7718C21.0561 20.7722 20.7586 20.4928 20.7532 20.185C20.7521 20.1187 20.8528 19.0198 20.9771 17.7431C21.1997 15.4571 21.2017 15.419 21.1054 15.2429C20.9157 14.896 20.9655 14.9012 17.8735 14.9026C15.3937 14.9036 15.068 14.9133 14.9094 14.9902ZM8.96751 29.2071C8.30841 29.3657 7.79012 29.9261 7.68916 30.5893L7.65159 30.8361H6.93677C6.24876 30.8361 6.21704 30.8409 6.09134 30.9647C5.96176 31.0923 5.96069 31.1015 5.96069 32.0941C5.96069 33.0866 5.96176 33.0958 6.09134 33.2234C6.21715 33.3473 6.24839 33.3521 6.94283 33.3521H7.66367V34.2659C7.66367 34.7745 7.68842 35.2452 7.71944 35.3274C7.79374 35.5239 9.66552 37.3787 9.88382 37.4721C10.1362 37.5801 15.4056 37.5802 15.668 37.4722C15.854 37.3956 15.8712 37.3764 16.5239 36.5116C16.9853 35.9003 17.7627 35.0812 17.8815 35.0812C18.0003 35.0812 18.7778 35.9003 19.2391 36.5116C19.8918 37.3764 19.909 37.3956 20.095 37.4722C20.3575 37.5802 25.6269 37.5801 25.8792 37.4721C26.0975 37.3787 27.9693 35.5239 28.0436 35.3274C28.0746 35.2452 28.0994 34.7745 28.0994 34.2659V33.3521H28.8202C29.5147 33.3521 29.5459 33.3473 29.6717 33.2234C29.8013 33.0958 29.8024 33.0866 29.8024 32.0941C29.8024 31.1015 29.8013 31.0923 29.6717 30.9647C29.546 30.8409 29.5143 30.8361 28.8263 30.8361H28.1115L28.0738 30.5887C28.0315 30.311 27.8527 29.9332 27.6527 29.6991C27.5795 29.6133 27.3686 29.4625 27.1841 29.364L26.8488 29.1849L17.988 29.1768C13.1145 29.1723 9.05532 29.186 8.96751 29.2071ZM26.3964 32.7615V34.6871L25.7986 35.2775L25.2008 35.8681H23.0422H20.8836L20.5422 35.4094C20.3544 35.1572 19.9244 34.6777 19.5866 34.344C18.4816 33.2521 17.8402 33.1043 16.8988 33.7245C16.4468 34.0223 15.6925 34.7809 15.2142 35.4187L14.8773 35.8681H12.7215H10.5657L9.9662 35.2792L9.36665 34.6904V32.7632V30.8361H17.8815H26.3964V32.7615Z" fill="#171B24"/>
<path fill-rule="evenodd" clip-rule="evenodd" d="M12.5176 7.15289C12.5176 3.20246 15.72 0 19.6705 0C23.6209 0 26.8234 3.20246 26.8234 7.15289H24.4391C24.4391 4.51927 22.3041 2.3843 19.6705 2.3843C17.0368 2.3843 14.9019 4.51927 14.9019 7.15289H12.5176Z" fill="#FDF074"/>
<path fill-rule="evenodd" clip-rule="evenodd" d="M10.7295 8.94098C10.7295 4.99054 13.932 1.78809 17.8824 1.78809H18.4785C22.4289 1.78809 25.6313 4.99054 25.6313 8.94098H23.2471C23.2471 6.30736 21.1121 4.17238 18.4785 4.17238H17.8824C15.2488 4.17238 13.1138 6.30736 13.1138 8.94098H10.7295Z" fill="#FBE303"/>
<path d="M52.3712 32.7545C51.4 32.7545 50.5573 32.6474 49.8431 32.4332C49.129 32.2189 48.5291 31.919 48.0435 31.5333C47.5721 31.1477 47.2079 30.6978 46.9508 30.1836C46.6937 29.6551 46.5366 29.0767 46.4795 28.4482H49.0504C49.1075 28.7482 49.2004 29.0195 49.3289 29.2624C49.4718 29.5052 49.6717 29.7194 49.9288 29.9051C50.1859 30.0908 50.5073 30.2336 50.8929 30.3336C51.2928 30.4335 51.7856 30.4835 52.3712 30.4835C52.9711 30.4835 53.4781 30.4335 53.8923 30.3336C54.3208 30.2193 54.6636 30.0765 54.9207 29.9051C55.1921 29.7194 55.3849 29.5052 55.4991 29.2624C55.6277 29.0053 55.692 28.7339 55.692 28.4482C55.692 27.7484 55.3635 27.2199 54.7064 26.8628C54.0637 26.5057 53.0568 26.1844 51.6856 25.8987C50.9143 25.7273 50.2288 25.5274 49.6289 25.2988C49.029 25.056 48.5291 24.7632 48.1292 24.4204C47.7292 24.0634 47.4222 23.642 47.2079 23.1564C47.008 22.6565 46.908 22.0638 46.908 21.3782C46.908 20.8212 47.0222 20.2927 47.2508 19.7928C47.4936 19.2929 47.8435 18.8573 48.3006 18.4859C48.7576 18.1145 49.3218 17.8217 49.9931 17.6075C50.6787 17.3933 51.4714 17.2861 52.3712 17.2861C53.2424 17.2861 54.0066 17.3861 54.6636 17.5861C55.3206 17.786 55.8705 18.0717 56.3133 18.443C56.7703 18.8001 57.1203 19.2286 57.3631 19.7285C57.6202 20.2284 57.7773 20.7783 57.8344 21.3782H55.2635C55.1492 20.8354 54.8564 20.3998 54.3851 20.0713C53.928 19.7285 53.2567 19.5571 52.3712 19.5571C51.3428 19.5571 50.6001 19.7357 50.1431 20.0927C49.7003 20.4498 49.4789 20.8783 49.4789 21.3782C49.4789 22.0638 49.7646 22.5779 50.3359 22.9207C50.9072 23.2635 51.7856 23.5563 52.9711 23.7991C53.8423 23.9848 54.6065 24.1991 55.2635 24.4419C55.9348 24.6847 56.4918 24.9918 56.9346 25.3631C57.3774 25.7202 57.7059 26.1487 57.9201 26.6486C58.1486 27.1485 58.2629 27.7484 58.2629 28.4482C58.2629 29.0624 58.1415 29.6337 57.8987 30.1622C57.6559 30.6906 57.2845 31.1477 56.7846 31.5333C56.299 31.919 55.6848 32.2189 54.9421 32.4332C54.2137 32.6474 53.3567 32.7545 52.3712 32.7545Z" fill="#171B24"/>
<path d="M65.1296 32.626C63.8298 32.626 62.8943 32.3475 62.323 31.7904C61.7659 31.2334 61.4874 30.3336 61.4874 29.091V23.1778H59.8806V21.1639H61.4874V18.593H63.8441V21.1639H66.7364V23.1778H63.8441V28.7696C63.8441 29.4409 63.9655 29.9122 64.2083 30.1836C64.4654 30.4407 64.951 30.5692 65.6652 30.5692C66.0937 30.5692 66.5222 30.5478 66.9506 30.505V32.5189C66.6793 32.5474 66.4007 32.5688 66.1151 32.5831C65.8294 32.6117 65.5009 32.626 65.1296 32.626Z" fill="#171B24"/>
<path d="M69.3157 21.1639H71.501V23.0921C71.7295 22.5065 72.1009 21.9995 72.615 21.571C73.1435 21.1425 73.7934 20.9283 74.5647 20.9283C74.9217 20.9283 75.186 20.9426 75.3574 20.9711C75.543 20.9997 75.6716 21.0283 75.743 21.0568V23.1993C75.5002 23.1278 75.2788 23.0779 75.0788 23.0493C74.8789 23.0064 74.6361 22.985 74.3504 22.985C73.8791 22.985 73.472 23.0707 73.1292 23.2421C72.8007 23.3992 72.5293 23.6135 72.3151 23.8848C72.1009 24.1419 71.9366 24.449 71.8223 24.8061C71.7224 25.1489 71.6724 25.5059 71.6724 25.8773V32.5189H69.3157V21.1639Z" fill="#171B24"/>
<path d="M82.382 32.7545C81.5965 32.7545 80.8609 32.6331 80.1753 32.3903C79.504 32.1332 78.9184 31.7619 78.4185 31.2762C77.9186 30.7906 77.5258 30.1907 77.2402 29.4766C76.9545 28.7482 76.8117 27.9055 76.8117 26.9485V26.52C76.8117 25.6202 76.9545 24.8275 77.2402 24.1419C77.5258 23.4421 77.9186 22.8565 78.4185 22.3851C78.9184 21.8995 79.504 21.5353 80.1753 21.2925C80.8609 21.0497 81.5965 20.9283 82.382 20.9283C83.1676 20.9283 83.896 21.0497 84.5673 21.2925C85.2529 21.5353 85.8456 21.8995 86.3455 22.3851C86.8454 22.8565 87.2382 23.4421 87.5239 24.1419C87.8095 24.8275 87.9524 25.6202 87.9524 26.52V26.9485C87.9524 27.9055 87.8095 28.7482 87.5239 29.4766C87.2382 30.1907 86.8454 30.7906 86.3455 31.2762C85.8456 31.7619 85.2529 32.1332 84.5673 32.3903C83.896 32.6331 83.1676 32.7545 82.382 32.7545ZM82.382 30.6978C82.7962 30.6978 83.189 30.6264 83.5604 30.4835C83.946 30.3407 84.2817 30.1193 84.5673 29.8194C84.8673 29.5194 85.1029 29.1338 85.2743 28.6625C85.46 28.1911 85.5528 27.6198 85.5528 26.9485V26.52C85.5528 25.9059 85.46 25.3774 85.2743 24.9346C85.1029 24.4919 84.8673 24.1276 84.5673 23.842C84.2817 23.5563 83.946 23.3421 83.5604 23.1993C83.189 23.0564 82.7962 22.985 82.382 22.985C81.9678 22.985 81.5679 23.0564 81.1823 23.1993C80.8109 23.3421 80.4753 23.5563 80.1753 23.842C79.8897 24.1276 79.654 24.4919 79.4683 24.9346C79.2969 25.3774 79.2112 25.9059 79.2112 26.52V26.9485C79.2112 27.6198 79.2969 28.1911 79.4683 28.6625C79.654 29.1338 79.8897 29.5194 80.1753 29.8194C80.4753 30.1193 80.8109 30.3407 81.1823 30.4835C81.5679 30.6264 81.9678 30.6978 82.382 30.6978Z" fill="#171B24"/>
<path d="M91.7033 37.0394C91.4891 37.0394 91.2748 37.018 91.0606 36.9751V34.9184C91.2748 34.9612 91.4891 34.9827 91.7033 34.9827C91.9461 34.9827 92.1461 34.9398 92.3032 34.8541C92.4746 34.7827 92.6246 34.647 92.7531 34.447C92.8959 34.2614 93.0316 34.0114 93.1602 33.6972C93.303 33.383 93.4601 32.9902 93.6315 32.5189L88.811 21.1639H91.3819L94.8527 29.9479L97.9806 21.1639H100.38L95.9882 32.5189C95.674 33.3187 95.3812 34.0043 95.1098 34.5756C94.8384 35.1469 94.5385 35.6111 94.21 35.9682C93.8957 36.3395 93.5387 36.6109 93.1387 36.7823C92.7388 36.9537 92.2603 37.0394 91.7033 37.0394Z" fill="#171B24"/>
<path d="M102.31 17.5218H104.667V26.113L109.38 21.1639H112.165L107.58 25.9844L112.594 32.5189H109.766L106.016 27.4841L104.667 28.8553V32.5189H102.31V17.5218Z" fill="#171B24"/>
<path d="M117.64 32.7545C117.026 32.7545 116.476 32.6688 115.99 32.4974C115.519 32.3118 115.119 32.0618 114.791 31.7476C114.462 31.4191 114.212 31.0406 114.041 30.6121C113.869 30.1836 113.784 29.7123 113.784 29.1981C113.784 28.0697 114.119 27.2342 114.791 26.6914C115.462 26.1344 116.448 25.8559 117.747 25.8559H121.282V25.2346C121.282 24.3776 121.089 23.792 120.704 23.4778C120.332 23.1493 119.74 22.985 118.926 22.985C118.197 22.985 117.662 23.0993 117.319 23.3278C116.976 23.5563 116.776 23.8706 116.719 24.2705H114.427C114.455 23.7849 114.576 23.3421 114.791 22.9422C115.019 22.528 115.326 22.1709 115.712 21.8709C116.112 21.571 116.59 21.3425 117.147 21.1854C117.704 21.014 118.333 20.9283 119.033 20.9283C119.733 20.9283 120.361 21.0068 120.918 21.1639C121.489 21.3211 121.975 21.571 122.375 21.9138C122.775 22.2423 123.082 22.6708 123.296 23.1993C123.525 23.7277 123.639 24.3633 123.639 25.106V29.6266C123.639 30.2264 123.646 30.7549 123.66 31.212C123.675 31.6547 123.71 32.0904 123.768 32.5189H121.625C121.582 32.1903 121.547 31.9118 121.518 31.6833C121.504 31.4548 121.497 31.1691 121.497 30.8263C121.225 31.3548 120.754 31.8118 120.083 32.1975C119.426 32.5688 118.611 32.7545 117.64 32.7545ZM118.283 30.6978C118.683 30.6978 119.061 30.6478 119.418 30.5478C119.79 30.4335 120.111 30.2764 120.382 30.0765C120.654 29.8622 120.868 29.6051 121.025 29.3052C121.197 28.991 121.282 28.6339 121.282 28.234V27.6127H118.176C117.576 27.6127 117.09 27.7412 116.719 27.9983C116.362 28.2554 116.183 28.6339 116.183 29.1338C116.183 29.6051 116.348 29.9836 116.676 30.2693C117.019 30.555 117.554 30.6978 118.283 30.6978Z" fill="#171B24"/>
<path d="M132.106 32.7545C131.135 32.7545 130.292 32.6474 129.578 32.4332C128.864 32.2189 128.264 31.919 127.778 31.5333C127.307 31.1477 126.943 30.6978 126.685 30.1836C126.428 29.6551 126.271 29.0767 126.214 28.4482H128.785C128.842 28.7482 128.935 29.0195 129.064 29.2624C129.206 29.5052 129.406 29.7194 129.663 29.9051C129.921 30.0908 130.242 30.2336 130.628 30.3336C131.027 30.4335 131.52 30.4835 132.106 30.4835C132.706 30.4835 133.213 30.4335 133.627 30.3336C134.055 30.2193 134.398 30.0765 134.655 29.9051C134.927 29.7194 135.119 29.5052 135.234 29.2624C135.362 29.0053 135.427 28.7339 135.427 28.4482C135.427 27.7484 135.098 27.2199 134.441 26.8628C133.798 26.5057 132.791 26.1844 131.42 25.8987C130.649 25.7273 129.963 25.5274 129.363 25.2988C128.764 25.056 128.264 24.7632 127.864 24.4204C127.464 24.0634 127.157 23.642 126.943 23.1564C126.743 22.6565 126.643 22.0638 126.643 21.3782C126.643 20.8212 126.757 20.2927 126.985 19.7928C127.228 19.2929 127.578 18.8573 128.035 18.4859C128.492 18.1145 129.056 17.8217 129.728 17.6075C130.413 17.3933 131.206 17.2861 132.106 17.2861C132.977 17.2861 133.741 17.3861 134.398 17.5861C135.055 17.786 135.605 18.0717 136.048 18.443C136.505 18.8001 136.855 19.2286 137.098 19.7285C137.355 20.2284 137.512 20.7783 137.569 21.3782H134.998C134.884 20.8354 134.591 20.3998 134.12 20.0713C133.663 19.7285 132.991 19.5571 132.106 19.5571C131.077 19.5571 130.335 19.7357 129.878 20.0927C129.435 20.4498 129.214 20.8783 129.214 21.3782C129.214 22.0638 129.499 22.5779 130.07 22.9207C130.642 23.2635 131.52 23.5563 132.706 23.7991C133.577 23.9848 134.341 24.1991 134.998 24.4419C135.669 24.6847 136.226 24.9918 136.669 25.3631C137.112 25.7202 137.44 26.1487 137.655 26.6486C137.883 27.1485 137.998 27.7484 137.998 28.4482C137.998 29.0624 137.876 29.6337 137.633 30.1622C137.39 30.6906 137.019 31.1477 136.519 31.5333C136.034 31.919 135.419 32.2189 134.677 32.4332C133.948 32.6474 133.091 32.7545 132.106 32.7545Z" fill="#171B24"/>
<path d="M144.864 32.626C143.564 32.626 142.629 32.3475 142.058 31.7904C141.501 31.2334 141.222 30.3336 141.222 29.091V23.1778H139.615V21.1639H141.222V18.593H143.579V21.1639H146.471V23.1778H143.579V28.7696C143.579 29.4409 143.7 29.9122 143.943 30.1836C144.2 30.4407 144.686 30.5692 145.4 30.5692C145.828 30.5692 146.257 30.5478 146.685 30.505V32.5189C146.414 32.5474 146.135 32.5688 145.85 32.5831C145.564 32.6117 145.236 32.626 144.864 32.626Z" fill="#171B24"/>
<path d="M153.873 32.7545C153.088 32.7545 152.352 32.6331 151.667 32.3903C150.995 32.1332 150.41 31.7619 149.91 31.2762C149.41 30.7906 149.017 30.1907 148.731 29.4766C148.446 28.7482 148.303 27.9055 148.303 26.9485V26.52C148.303 25.6202 148.446 24.8275 148.731 24.1419C149.017 23.4421 149.41 22.8565 149.91 22.3851C150.41 21.8995 150.995 21.5353 151.667 21.2925C152.352 21.0497 153.088 20.9283 153.873 20.9283C154.659 20.9283 155.387 21.0497 156.059 21.2925C156.744 21.5353 157.337 21.8995 157.837 22.3851C158.337 22.8565 158.729 23.4421 159.015 24.1419C159.301 24.8275 159.444 25.6202 159.444 26.52V26.9485C159.444 27.9055 159.301 28.7482 159.015 29.4766C158.729 30.1907 158.337 30.7906 157.837 31.2762C157.337 31.7619 156.744 32.1332 156.059 32.3903C155.387 32.6331 154.659 32.7545 153.873 32.7545ZM153.873 30.6978C154.287 30.6978 154.68 30.6264 155.052 30.4835C155.437 30.3407 155.773 30.1193 156.059 29.8194C156.359 29.5194 156.594 29.1338 156.766 28.6625C156.951 28.1911 157.044 27.6198 157.044 26.9485V26.52C157.044 25.9059 156.951 25.3774 156.766 24.9346C156.594 24.4919 156.359 24.1276 156.059 23.842C155.773 23.5563 155.437 23.3421 155.052 23.1993C154.68 23.0564 154.287 22.985 153.873 22.985C153.459 22.985 153.059 23.0564 152.674 23.1993C152.302 23.3421 151.967 23.5563 151.667 23.842C151.381 24.1276 151.145 24.4919 150.96 24.9346C150.788 25.3774 150.702 25.9059 150.702 26.52V26.9485C150.702 27.6198 150.788 28.1911 150.96 28.6625C151.145 29.1338 151.381 29.5194 151.667 29.8194C151.967 30.1193 152.302 30.3407 152.674 30.4835C153.059 30.6264 153.459 30.6978 153.873 30.6978Z" fill="#171B24"/>
<path d="M161.792 21.1639H163.977V23.0921C164.206 22.5065 164.577 21.9995 165.091 21.571C165.62 21.1425 166.27 20.9283 167.041 20.9283C167.398 20.9283 167.662 20.9426 167.834 20.9711C168.019 20.9997 168.148 21.0283 168.219 21.0568V23.1993C167.976 23.1278 167.755 23.0779 167.555 23.0493C167.355 23.0064 167.112 22.985 166.827 22.985C166.355 22.985 165.948 23.0707 165.605 23.2421C165.277 23.3992 165.006 23.6135 164.791 23.8848C164.577 24.1419 164.413 24.449 164.299 24.8061C164.199 25.1489 164.149 25.5059 164.149 25.8773V32.5189H161.792V21.1639Z" fill="#171B24"/>
<path d="M174.858 32.7545C174.101 32.7545 173.387 32.6403 172.716 32.4117C172.045 32.1689 171.452 31.8118 170.938 31.3405C170.438 30.8549 170.038 30.2479 169.738 29.5194C169.438 28.791 169.288 27.934 169.288 26.9485V26.52C169.288 25.5774 169.431 24.7561 169.716 24.0562C170.002 23.3564 170.388 22.7779 170.873 22.3209C171.373 21.8495 171.945 21.4996 172.587 21.2711C173.23 21.0425 173.916 20.9283 174.644 20.9283C176.372 20.9283 177.693 21.3925 178.608 22.3209C179.536 23.2492 180 24.5776 180 26.3058V27.5056H171.687C171.702 28.0912 171.795 28.5911 171.966 29.0053C172.152 29.4052 172.387 29.7337 172.673 29.9908C172.973 30.2336 173.309 30.4121 173.68 30.5264C174.066 30.6407 174.458 30.6978 174.858 30.6978C175.672 30.6978 176.265 30.5692 176.637 30.3121C177.022 30.0551 177.286 29.7194 177.429 29.3052H179.786C179.557 30.4335 178.993 31.2905 178.093 31.8761C177.208 32.4617 176.129 32.7545 174.858 32.7545ZM174.751 22.985C174.351 22.985 173.966 23.035 173.594 23.135C173.237 23.235 172.916 23.3992 172.63 23.6277C172.359 23.842 172.137 24.1276 171.966 24.4847C171.795 24.8275 171.702 25.2489 171.687 25.7488H177.643C177.629 25.2203 177.543 24.7775 177.386 24.4204C177.244 24.0634 177.044 23.7777 176.786 23.5635C176.529 23.3492 176.222 23.1993 175.865 23.1136C175.522 23.0279 175.151 22.985 174.751 22.985Z" fill="#171B24"/>
</svg>
